<?xml version="1.0" encoding="UTF-8"?>
<svg id="Layer_1" data-name="Layer 1" xmlns="http://www.w3.org/2000/svg" viewBox="0 0 125.58 129.9">
  <defs>
    <style>
      .cls-1 {
        fill: #ddbf3e;
      }

      .cls-2 {
        fill: #444;
      }

      .cls-3 {
        fill: #ffde1f;
      }

      .cls-4 {
        fill: #faefde;
      }
    </style>
  </defs>
  <path class="cls-3" d="m2.28,7.28l12.23,101.34c.45,3.58,3,6.58,6.5,7.56l39.28,11.14c1.6.45,3.27.45,4.87.03l41.29-11.2c3.61-.98,6.24-4.06,6.61-7.78L123.25,7.16c.28-2.63-1.82-4.93-4.51-4.93H6.76c-2.69,0-4.79,2.35-4.48,5.04h0Z"/>
  <path class="cls-1" d="m108.33,13.44h-45.6v103.02c.67,0,1.34-.08,1.99-.28l33.59-9.8c2.94-.87,5.09-3.56,5.37-6.8l8.29-81.83c.22-2.29-1.48-4.31-3.64-4.31Z"/>
  <path class="cls-2" d="m62.78,129.9c-1.04,0-2.07-.14-3.11-.42l-39.28-11.14c-4.37-1.23-7.56-4.95-8.12-9.46L.05,7.53c-.22-1.9.36-3.81,1.65-5.26C2.99.84,4.83,0,6.79,0h112.01c1.9,0,3.75.81,5.04,2.24,1.26,1.4,1.9,3.3,1.71,5.18l-10.19,101.2c-.45,4.59-3.78,8.51-8.26,9.72l-41.29,11.2c-1.04.22-2.02.36-3.02.36h0ZM6.79,4.48c-.67,0-1.29.28-1.71.79-.42.48-.62,1.12-.56,1.74h0l12.23,101.34c.33,2.69,2.24,4.93,4.87,5.69l39.28,11.14c1.2.33,2.46.33,3.67.03l41.29-11.2c2.69-.73,4.71-3.08,4.98-5.82L121.04,6.97c.06-.65-.14-1.26-.56-1.74-.45-.48-1.04-.76-1.71-.76H6.79Z"/>
  <path class="cls-4" d="m44.81,33.59v55.99c-6.72-1.48-13.44-3-20.16-4.48.45,4.48.92,8.96,1.37,13.44,9.99,2.86,19.99,5.69,29.98,8.54V33.59h-11.2Z"/>
  <path class="cls-4" d="m102.65,44.9l.95-11.31h-34.16v49.27c6.69-1.54,13.35-3.08,20.04-4.62l-.7,10.61c-6.44,1.74-12.88,3.47-19.32,5.23v13.44c9.52-2.75,19.01-5.46,28.53-8.17l2.97-34.63c-6.78.84-13.52,1.68-20.3,2.49v-22.4c7.31,0,14.64.06,21.97.08h0Z"/>
  <path class="cls-2" d="m56.01,109.32c-.19,0-.42-.03-.62-.08l-29.98-8.54c-.9-.25-1.51-1.01-1.63-1.93l-1.37-13.44c-.08-.73.19-1.43.73-1.9s1.26-.67,1.99-.5l17.44,3.86v-53.19c0-1.23,1.01-2.24,2.24-2.24h11.2c1.23,0,2.24,1.01,2.24,2.24v73.49c0,.7-.33,1.37-.9,1.79-.39.31-.87.45-1.34.45h0Zm-27.91-12.52l25.67,7.31V35.83h-6.72v53.75c0,.67-.31,1.31-.84,1.74s-1.23.59-1.88.45l-17.13-3.81.9,8.85h0Z"/>
  <path class="cls-2" d="m69.44,109.74c-.48,0-.95-.17-1.34-.45-.56-.42-.9-1.09-.9-1.79v-13.44c0-1.01.67-1.9,1.65-2.15l17.78-4.82.39-5.99-17.1,3.95c-.65.17-1.37,0-1.9-.42s-.84-1.06-.84-1.77v-49.27c0-1.23,1.01-2.24,2.24-2.24h34.18c.62,0,1.23.25,1.65.73.42.48.65,1.09.59,1.71l-.98,11.31c-.11,1.17-1.17,2.13-2.24,2.04l-19.74-.11v17.64l17.78-2.18c.67-.08,1.34.14,1.82.62.48.48.73,1.12.67,1.79l-2.97,34.63c-.08.92-.73,1.71-1.63,1.96l-28.53,8.17c-.17.06-.39.08-.59.08h0Zm2.24-13.97v8.76l24.19-6.94,2.6-30.35-17.55,2.15c-.62.08-1.29-.11-1.77-.56s-.76-1.04-.76-1.68v-22.4c0-.59.22-1.17.67-1.6s.92-.65,1.6-.65l19.93.11.59-6.83h-29.51v44.21l17.3-4c.7-.17,1.43.03,1.96.48s.84,1.15.79,1.85l-.7,10.61c-.06.95-.73,1.77-1.65,2.02l-17.69,4.82h0Z"/>
</svg>