<?xml version="1.0" standalone="no"?><svg xmlns="http://www.w3.org/2000/svg" viewBox="0 0 1440 320"><path fill="#fff" fill-opacity="1" d="M0,32L34.3,69.3C68.6,107,137,181,206,202.7C274.3,224,343,192,411,154.7C480,117,549,75,617,85.3C685.7,96,754,160,823,181.3C891.4,203,960,181,1029,197.3C1097.1,213,1166,267,1234,288C1302.9,309,1371,299,1406,293.3L1440,288L1440,320L1405.7,320C1371.4,320,1303,320,1234,320C1165.7,320,1097,320,1029,320C960,320,891,320,823,320C754.3,320,686,320,617,320C548.6,320,480,320,411,320C342.9,320,274,320,206,320C137.1,320,69,320,34,320L0,320Z"></path></svg>